<?xml version="1.0" encoding="utf-8"?>
<!-- Generator: Adobe Illustrator 22.0.0, SVG Export Plug-In . SVG Version: 6.00 Build 0)  -->
<svg version="1.1" id="Vrstva_1" xmlns="http://www.w3.org/2000/svg" xmlns:xlink="http://www.w3.org/1999/xlink" x="0px" y="0px"
	 viewBox="0 0 1024 768" style="enable-background:new 0 0 1024 768;" xml:space="preserve">
<style type="text/css">
	.st0{fill:#FFFFFF;}
	.st1{fill:#FFFFFF;stroke:#000000;stroke-width:5;stroke-miterlimit:10;}
	.st2{fill:none;stroke:#000000;stroke-width:2;stroke-miterlimit:10;}
	.st3{fill:#FFFFFF;stroke:#000000;stroke-width:2;stroke-miterlimit:10;}
	.st4{fill:#FFFFFF;stroke:#000000;stroke-width:15;stroke-miterlimit:10;}
	.st5{fill:#999999;}
	.st6{fill:none;stroke:#000000;stroke-width:15;stroke-miterlimit:10;}
	.st7{fill:none;stroke:#000000;stroke-width:5;stroke-miterlimit:10;}
</style>
<g>
	<path class="st0" d="M168.8,729.9c-7.3,0-13.3-6-13.3-13.3V223.4c0-7.3,6-13.3,13.3-13.3h609.8c7.3,0,13.3,6,13.3,13.3v493.3
		c0,7.3-6,13.3-13.3,13.3H168.8z"/>
	<path d="M778.7,217.1c3.5,0,6.3,2.8,6.3,6.3v493.3c0,3.5-2.8,6.3-6.3,6.3H168.8c-3.5,0-6.3-2.8-6.3-6.3V223.4
		c0-3.5,2.8-6.3,6.3-6.3H778.7 M778.7,203.1H168.8c-11.2,0-20.3,9.1-20.3,20.3v493.3c0,11.2,9.1,20.3,20.3,20.3h609.8
		c11.2,0,20.3-9.1,20.3-20.3V223.4C799,212.2,789.9,203.1,778.7,203.1L778.7,203.1z"/>
</g>
<path class="st1" d="M723.4,494.4"/>
<path class="st2" d="M555.1,846.9"/>
<path class="st3" d="M147,399.1"/>
<path class="st2" d="M412,808.8"/>
<path class="st2" d="M549.7,853.8"/>
<g>
	<path class="st1" d="M808.4,209.4"/>
	<path class="st2" d="M690.9,539.3"/>
	<path class="st2" d="M671.9,545.8"/>
	<path class="st3" d="M668.3,471.7"/>
	<path class="st2" d="M660.6,552.8"/>
	<line class="st2" x1="650.1" y1="559.2" x2="649.4" y2="559.6"/>
	<path class="st1" d="M624.9,232.5"/>
	<path class="st4" d="M1013.1,260.3c0,13.7-5.4,16.8-11,29.3c-0.3,0.8-13.6,19.4-14.2,20.1L792,548.1l-2.9,3.8
		c-19.5,24.1-49.8,39.3-83.8,38.5c-55.1-1.2-100.1-45-101.6-99c-0.9-33.1,14.3-62.8,38.5-82c6.6-5.3,14-9.8,21.8-13.3l277.1-169.3
		c7.6-6.1,17.3-9.8,27.9-9.8C993.4,217.1,1013.1,236.4,1013.1,260.3z"/>
	<g>
		<path class="st0" d="M711.6,545.4c-1.1-1.6-2.6-3-4.6-3.7c-0.9-0.3-1.8-0.5-2.7-0.5c-2.2,0-4,0.9-5.3,1.9c-2.1-3.6-5-4.3-6.8-4.4
			l-0.3,0c-1.8,0-3.5,0.6-4.9,1.5c-0.4-1.7-1.2-3.4-2.6-4.7c-1.4-1.4-3.3-2.1-5.3-2.1c-0.8,0-1.5,0.1-2.3,0.3
			c-0.6-3.9-2.9-5.6-4.6-6.4c-1.1-0.5-2.3-0.7-3.5-0.7c-0.5,0-1.1,0-1.6,0.1c0.2-1.7,0.1-3.4-0.6-5.1c-0.7-1.5-2.4-4-6.4-4.5
			c0.9-3.8-0.6-6.3-1.9-7.6c-1.3-1.3-3-2.1-4.6-2.5c0.9-1.5,1.5-3.2,1.4-5.1c-0.1-1.8-0.8-4.6-4.4-6.7c2.4-3.3,2-6.2,1.4-7.9
			c-0.7-1.9-2.1-3.3-3.6-4.4c1.5-1.1,2.9-2.5,3.6-4.4c0.6-1.7,1.1-4.6-1.4-7.9c3.6-2.1,4.3-4.9,4.4-6.7c0.1-1.9-0.5-3.6-1.4-5
			c1.7-0.4,3.3-1.1,4.6-2.5c1.3-1.3,2.8-3.7,1.9-7.6c4-0.5,5.8-3,6.5-4.5c0.8-1.7,0.9-3.4,0.6-5.1c0.6,0.1,1.1,0.1,1.6,0.1
			c1.3,0,2.5-0.2,3.5-0.7c1.6-0.7,4-2.4,4.6-6.4c0.8,0.2,1.6,0.3,2.3,0.3c2.1,0,3.9-0.7,5.3-2.1c1.4-1.3,2.2-3,2.6-4.7
			c1.4,0.8,3.1,1.5,4.9,1.5l0.3,0c1.8-0.1,4.7-0.8,6.8-4.4c1.4,1,3.2,1.9,5.4,1.9c0.9,0,1.8-0.2,2.7-0.5c2-0.7,3.5-2.1,4.6-3.7
			c1.1,1.6,2.6,3,4.6,3.7c0.9,0.3,1.8,0.5,2.7,0.5c2.2,0,4-0.9,5.4-1.9c2.1,3.6,5,4.3,6.8,4.4l0.3,0c1.8,0,3.5-0.6,4.9-1.5
			c0.4,1.7,1.2,3.4,2.6,4.7c1.4,1.4,3.3,2.1,5.3,2.1c0.8,0,1.5-0.1,2.3-0.3c0.6,3.9,2.9,5.6,4.6,6.4c1.1,0.5,2.3,0.7,3.5,0.7
			c0.5,0,1.1,0,1.6-0.1c-0.2,1.7-0.1,3.4,0.6,5.1c0.7,1.5,2.4,4,6.4,4.5c-0.9,3.8,0.6,6.3,1.9,7.6c1.3,1.3,3,2.1,4.6,2.5
			c-0.9,1.5-1.5,3.2-1.4,5.1c0.1,1.8,0.8,4.6,4.4,6.7c-2.4,3.3-2,6.2-1.4,7.9c0.7,1.9,2.1,3.3,3.6,4.4c-1.5,1.1-2.9,2.5-3.6,4.4
			c-0.6,1.7-1.1,4.6,1.4,7.9c-3.6,2.1-4.3,4.9-4.4,6.7c-0.1,1.9,0.5,3.6,1.4,5c-1.7,0.4-3.3,1.2-4.6,2.5c-1.2,1.3-2.8,3.7-1.9,7.6
			c-4,0.5-5.8,3-6.5,4.5c-0.8,1.7-0.9,3.4-0.6,5.1c-0.6-0.1-1.1-0.1-1.6-0.1c-1.3,0-2.5,0.2-3.5,0.7c-1.6,0.7-4,2.4-4.6,6.4
			c-0.8-0.2-1.6-0.3-2.3-0.3c-2.1,0-3.9,0.7-5.3,2.1c-1.4,1.3-2.2,3-2.6,4.7c-1.4-0.8-3.1-1.5-4.9-1.5l-0.3,0
			c-1.8,0.1-4.7,0.8-6.8,4.4c-1.4-1-3.2-1.9-5.3-1.9c-0.9,0-1.8,0.2-2.7,0.5C714.2,542.4,712.7,543.8,711.6,545.4z"/>
		<path class="st5" d="M711.6,428.3c0.8,0.5,1.7,1,2.7,1.3c1.5,0.5,3,0.8,4.6,0.8c1.4,0,2.7-0.2,3.9-0.6c3,2.5,6.2,3,8,3
			c0.2,0,0.4,0,0.5,0c0.7,0,1.4-0.1,2.1-0.2c0.5,0.7,1,1.3,1.7,1.9c2.1,2,4.8,3.2,7.6,3.5c1.9,3.5,4.8,5.1,6.2,5.7
			c0.7,0.3,1.5,0.6,2.2,0.8c0.2,0.7,0.4,1.5,0.8,2.2c1.2,2.7,3.2,4.7,5.8,6.1c0.5,3.9,2.6,6.5,3.6,7.5c0.6,0.6,1.2,1.1,1.8,1.6
			c-0.1,0.8-0.1,1.5-0.1,2.4c0.1,1.8,0.6,5,3,7.9c-1.1,3.7-0.3,6.8,0.3,8.4c0.3,0.9,0.8,1.7,1.2,2.5c-0.5,0.8-0.9,1.6-1.2,2.5
			c-0.6,1.7-1.4,4.8-0.3,8.4c-2.4,2.9-3,6.1-3,7.9c0,0.8,0,1.6,0.1,2.4c-0.6,0.4-1.2,1-1.8,1.6c-1,1-3.1,3.6-3.6,7.5
			c-2.5,1.3-4.6,3.4-5.8,6.1c-0.3,0.7-0.6,1.5-0.8,2.2c-0.8,0.2-1.5,0.4-2.2,0.8c-1.3,0.6-4.2,2.2-6.2,5.7c-2.9,0.3-5.5,1.5-7.6,3.5
			c-0.6,0.6-1.2,1.2-1.7,1.9c-0.7-0.1-1.4-0.2-2.1-0.2c-0.2,0-0.4,0-0.5,0c-1.8,0.1-5,0.6-8,3c-1.3-0.4-2.6-0.6-3.9-0.6
			c-1.6,0-3.1,0.3-4.6,0.8c-1,0.4-1.9,0.8-2.7,1.3c-0.8-0.5-1.7-1-2.7-1.3c-1.5-0.5-3-0.8-4.6-0.8c-1.4,0-2.7,0.2-3.9,0.6
			c-3-2.5-6.2-3-8-3c-0.2,0-0.4,0-0.5,0c-0.7,0-1.4,0.1-2.1,0.2c-0.5-0.7-1-1.3-1.7-1.9c-2.1-2-4.8-3.2-7.6-3.5
			c-1.9-3.5-4.8-5.1-6.2-5.7c-0.7-0.3-1.5-0.6-2.2-0.8c-0.2-0.7-0.4-1.5-0.8-2.2c-1.2-2.7-3.2-4.7-5.8-6.1c-0.5-3.9-2.6-6.5-3.6-7.5
			c-0.6-0.6-1.2-1.1-1.8-1.6c0.1-0.8,0.1-1.5,0.1-2.4c-0.1-1.8-0.6-5-3-7.9c1.1-3.7,0.3-6.8-0.3-8.4c-0.3-0.9-0.8-1.7-1.2-2.5
			c0.5-0.8,0.9-1.6,1.2-2.5c0.6-1.7,1.4-4.8,0.3-8.4c2.4-2.9,3-6.1,3-7.9c0-0.8,0-1.6-0.1-2.4c0.6-0.4,1.2-1,1.8-1.6
			c1-1,3.1-3.6,3.6-7.5c2.5-1.3,4.6-3.4,5.8-6.1c0.3-0.7,0.6-1.5,0.8-2.2c0.8-0.2,1.5-0.4,2.2-0.8c1.3-0.6,4.2-2.2,6.2-5.7
			c2.9-0.3,5.5-1.5,7.6-3.5c0.6-0.6,1.2-1.2,1.7-1.9c0.7,0.1,1.4,0.2,2.1,0.2c0.2,0,0.4,0,0.5,0c1.8-0.1,5-0.6,8-3
			c1.3,0.4,2.6,0.6,3.9,0.6c1.6,0,3.1-0.3,4.6-0.8C709.9,429.3,710.8,428.9,711.6,428.3 M711.6,413c-1.2,0-2.3,0.6-2.9,1.8
			c-1.1,2.5-2.3,4-3.6,4.5c-0.3,0.1-0.5,0.1-0.8,0.1c-1.2,0-2.5-0.9-3.9-2.7c-0.6-0.8-1.5-1.1-2.3-1.1c-1.3,0-2.5,0.8-2.9,2.2
			c-0.7,2.8-1.8,4.1-3.2,4.2c0,0-0.1,0-0.1,0c-1.2,0-2.8-0.9-4.6-2.6c-0.6-0.6-1.4-0.8-2.1-0.8c-1.6,0-3.1,1.2-3.2,3.1
			c0,2.5-0.5,4.3-1.3,5.1c-0.4,0.4-0.9,0.6-1.6,0.6c-1,0-2.4-0.5-4.1-1.6c-0.4-0.3-0.9-0.4-1.3-0.4c-1.5,0-2.8,1.3-2.5,2.9
			c0.6,3.2,0.2,5-1.2,5.6c-0.4,0.2-0.8,0.2-1.3,0.2c-1,0-2.3-0.3-3.9-0.9c-0.4-0.2-0.8-0.2-1.2-0.2c-2.1,0-3.7,2.1-2.9,4.2
			c0.9,2.3,1.2,4,0.7,5.1c-0.4,0.9-1.5,1.4-3.2,1.4c-0.7,0-1.6-0.1-2.5-0.3c-0.2,0-0.3,0-0.5,0c-1.9,0-3.2,2.1-2.1,3.8
			c1.7,2.7,2,4.5,1,5.6c-0.9,0.9-2.6,1.3-5.2,1.3c-2.8,0-4.1,3.2-2.3,5.2c1.8,1.8,2.7,3.4,2.6,4.6c-0.1,1.4-1.4,2.4-4.2,3.2
			c-2.4,0.6-3,3.6-1.1,5.1c2.3,1.8,3.2,3.3,2.6,4.6c-0.5,1.2-2.1,2.4-4.6,3.5c-2.5,1.1-2.5,4.6,0,5.7c2.5,1.1,4.1,2.3,4.6,3.5
			c0.5,1.4-0.3,2.9-2.6,4.6c-1.9,1.5-1.3,4.5,1.1,5.1c2.8,0.7,4.2,1.8,4.2,3.2c0.1,1.2-0.9,2.8-2.6,4.6c-1.9,2-0.5,5.2,2.3,5.2
			c2.6,0,4.3,0.4,5.2,1.3c1,1.1,0.7,2.9-1,5.6c-1.1,1.7,0.2,3.8,2.1,3.8c0.1,0,0.3,0,0.5,0c1-0.2,1.8-0.3,2.5-0.3
			c1.7,0,2.7,0.5,3.2,1.4c0.5,1.1,0.2,2.8-0.7,5.1c-0.8,2.1,0.8,4.2,2.9,4.2c0.4,0,0.8-0.1,1.2-0.2c1.6-0.6,2.9-0.9,3.9-0.9
			c0.5,0,0.9,0.1,1.3,0.2c1.4,0.6,1.8,2.4,1.2,5.6c-0.3,1.6,1,2.9,2.5,2.9c0.4,0,0.9-0.1,1.3-0.4c1.7-1.1,3.1-1.6,4.1-1.6
			c0.6,0,1.2,0.2,1.6,0.6c0.9,0.8,1.3,2.6,1.3,5.1c0,1.8,1.6,3.1,3.2,3.1c0.7,0,1.5-0.3,2.1-0.8c1.8-1.7,3.4-2.6,4.6-2.6
			c0,0,0.1,0,0.1,0c1.4,0.1,2.5,1.4,3.2,4.2c0.4,1.4,1.6,2.2,2.9,2.2c0.8,0,1.7-0.4,2.3-1.1c1.5-1.8,2.8-2.7,3.9-2.7
			c0.3,0,0.5,0,0.8,0.1c1.3,0.5,2.4,2,3.6,4.5c0.6,1.2,1.7,1.8,2.9,1.8c1.2,0,2.3-0.6,2.9-1.8c1.1-2.5,2.3-4,3.6-4.5
			c0.3-0.1,0.5-0.1,0.8-0.1c1.2,0,2.5,0.9,3.9,2.7c0.6,0.8,1.5,1.1,2.3,1.1c1.3,0,2.5-0.8,2.9-2.2c0.7-2.8,1.8-4.1,3.2-4.2
			c0,0,0.1,0,0.1,0c1.2,0,2.8,0.9,4.6,2.6c0.6,0.6,1.4,0.8,2.1,0.8c1.6,0,3.1-1.2,3.2-3.1c0-2.5,0.5-4.3,1.3-5.1
			c0.4-0.4,0.9-0.6,1.6-0.6c1,0,2.4,0.5,4.1,1.6c0.4,0.3,0.9,0.4,1.3,0.4c1.5,0,2.8-1.3,2.5-2.9c-0.6-3.2-0.2-5,1.2-5.6
			c0.4-0.2,0.8-0.2,1.3-0.2c1,0,2.3,0.3,3.9,0.9c0.4,0.2,0.8,0.2,1.2,0.2c2.1,0,3.7-2.1,2.9-4.2c-0.9-2.3-1.2-4-0.7-5.1
			c0.4-0.9,1.5-1.4,3.2-1.4c0.7,0,1.6,0.1,2.5,0.3c0.2,0,0.3,0,0.5,0c1.9,0,3.2-2.1,2.1-3.8c-1.7-2.7-2-4.5-1-5.6
			c0.9-0.9,2.6-1.3,5.2-1.3c2.8,0,4.1-3.2,2.3-5.2c-1.8-1.8-2.7-3.4-2.6-4.6c0.1-1.4,1.4-2.4,4.2-3.2c2.4-0.6,3-3.6,1.1-5.1
			c-2.3-1.8-3.2-3.3-2.6-4.6c0.5-1.2,2.1-2.4,4.6-3.5c2.5-1.1,2.5-4.6,0-5.7c-2.5-1.1-4.1-2.3-4.6-3.5c-0.5-1.4,0.3-2.9,2.6-4.6
			c1.9-1.5,1.3-4.5-1.1-5.1c-2.8-0.7-4.2-1.8-4.2-3.2c-0.1-1.2,0.9-2.8,2.6-4.6c1.9-2,0.5-5.2-2.3-5.2c-2.6,0-4.3-0.4-5.2-1.3
			c-1-1.1-0.7-2.9,1-5.6c1.1-1.7-0.2-3.8-2.1-3.8c-0.1,0-0.3,0-0.5,0c-1,0.2-1.8,0.3-2.5,0.3c-1.7,0-2.7-0.5-3.2-1.4
			c-0.5-1.1-0.2-2.8,0.7-5.1c0.8-2.1-0.8-4.2-2.9-4.2c-0.4,0-0.8,0.1-1.2,0.2c-1.6,0.6-2.9,0.9-3.9,0.9c-0.5,0-0.9-0.1-1.3-0.2
			c-1.4-0.6-1.8-2.4-1.2-5.6c0.3-1.6-1-2.9-2.5-2.9c-0.4,0-0.9,0.1-1.3,0.4c-1.7,1.1-3.1,1.6-4.1,1.6c-0.6,0-1.2-0.2-1.6-0.6
			c-0.9-0.8-1.3-2.6-1.3-5.1c0-1.8-1.6-3.1-3.2-3.1c-0.7,0-1.5,0.3-2.1,0.8c-1.8,1.7-3.4,2.6-4.6,2.6c0,0-0.1,0-0.1,0
			c-1.4-0.1-2.5-1.4-3.2-4.2c-0.4-1.4-1.6-2.2-2.9-2.2c-0.8,0-1.7,0.4-2.3,1.1c-1.5,1.8-2.8,2.7-3.9,2.7c-0.3,0-0.5,0-0.8-0.1
			c-1.3-0.5-2.4-2-3.6-4.5C713.9,413.6,712.8,413,711.6,413L711.6,413z"/>
	</g>
	<g>
		<path class="st0" d="M711.5,519.9c-20.7,0-37.6-16.5-37.6-36.7s16.9-36.7,37.6-36.7s37.6,16.5,37.6,36.7S732.2,519.9,711.5,519.9z
			"/>
		<path d="M711.5,453c17.1,0,31.1,13.5,31.1,30.2s-13.9,30.2-31.1,30.2s-31.1-13.5-31.1-30.2S694.3,453,711.5,453 M711.5,440
			c-24.4,0-44.1,19.3-44.1,43.2c0,23.9,19.7,43.2,44.1,43.2s44.1-19.3,44.1-43.2C755.6,459.3,735.8,440,711.5,440L711.5,440z"/>
	</g>
	<path class="st2" d="M747,493.3"/>
</g>
<line class="st6" x1="154.9" y1="622.8" x2="13.1" y2="622.8"/>
<line class="st6" x1="154.9" y1="302" x2="13.1" y2="302"/>
<path class="st7" d="M328.1,723.5"/>
<path class="st7" d="M469.8,723.5"/>
<line class="st6" x1="154.9" y1="458.8" x2="13.1" y2="458.8"/>
<g>
	<g>
		<path d="M215.7,262.3h12.7v67.4h-12.7V262.3z M221.5,291.3h21.6c1.5,0,2.9-0.3,4-1c1.2-0.7,2.1-1.7,2.7-2.9c0.6-1.3,1-2.7,1-4.4
			c0-1.7-0.3-3.1-1-4.4s-1.5-2.3-2.7-3c-1.2-0.7-2.5-1-4.1-1h-21.6v-12.2h21.2c4.2,0,7.9,0.9,11.1,2.6c3.2,1.7,5.7,4.1,7.4,7.3
			c1.8,3.1,2.6,6.7,2.6,10.9c0,4.1-0.9,7.7-2.6,10.8c-1.8,3.1-4.2,5.5-7.4,7.2c-3.2,1.7-6.9,2.6-11.1,2.6h-21.2V291.3z"/>
		<path d="M283.4,328c-3.1-1.6-5.5-4-7.1-7.2c-1.6-3.1-2.4-6.9-2.4-11.3v-7.8c0-4.4,0.8-8.1,2.4-11.2c1.6-3.1,4-5.5,7.1-7.1
			c3.1-1.6,6.9-2.4,11.2-2.4c4.4,0,8.1,0.8,11.2,2.4c3.1,1.6,5.5,4,7.1,7.1c1.6,3.1,2.4,6.8,2.4,11.2v8c0,4.4-0.8,8.1-2.4,11.2
			c-1.6,3.1-4,5.5-7.1,7.1c-3.1,1.6-6.9,2.5-11.2,2.5C290.2,330.4,286.5,329.6,283.4,328z M300.6,315.9c1.4-1.5,2.1-3.6,2.1-6.3v-8
			c0-2.7-0.7-4.8-2.1-6.3c-1.4-1.5-3.4-2.2-6-2.2c-2.5,0-4.5,0.7-5.9,2.2s-2.1,3.6-2.1,6.3v8c0,2.7,0.7,4.8,2.1,6.3s3.4,2.2,5.9,2.2
			C297.2,318.2,299.1,317.4,300.6,315.9z"/>
		<path d="M324.2,281.6h12.2l8.5,29.7l10.2-29.7h7.5l10.2,29.7l8.5-29.7h12.2l-14.8,48.1h-9.5l-10.3-31.4l-10.3,31.4H339
			L324.2,281.6z"/>
		<path d="M416.8,330.4c0,0-1.6-0.8-4.9-2.5c-3.3-1.7-5.8-4.1-7.5-7.4c-1.7-3.2-2.6-7.1-2.6-11.7v-5.4c0-4.8,0.8-8.8,2.5-12.2
			c1.7-3.4,4.1-5.9,7.2-7.7s7-2.6,11.5-2.6c4.2,0,7.8,1.1,10.8,3.2c3,2.1,5.3,5.2,6.8,9.2s2.3,8.8,2.3,14.5v3.2H410v-8.6h21.3
			l-0.1-1.1c-0.3-2.8-1.2-4.9-2.6-6.4c-1.4-1.5-3.3-2.3-5.6-2.3c-3.1,0-5.4,0.9-7.1,2.7c-1.7,1.8-2.5,4.4-2.5,7.7v6.1
			c0,3.3,0.9,5.8,2.8,7.6c1.8,1.8,4.4,2.7,7.7,2.7c1.7,0,3.4-0.3,5.1-0.9c1.7-0.6,3.2-1.5,4.5-2.6l8.3,7.4c-2.5,2.3-5.3,4.1-8.4,5.3
			c-3.1,1.3-6.3,1.9-9.5,1.9C419.2,330.4,416.8,330.4,416.8,330.4z"/>
		<path d="M455.4,281.6H469v48.1h-13.6V281.6z M480.2,293.6c-0.9-0.3-1.9-0.5-3.1-0.5c-2.6,0-4.6,0.8-6,2.5s-2.1,4-2.1,6.9l-1-12.5
			c1.3-2.9,3.1-5.1,5.2-6.7c2.1-1.6,4.4-2.4,7-2.4c2,0,3.8,0.3,5.5,1c1.6,0.6,3,1.6,4.2,2.8l-7.4,10.3
			C481.9,294.4,481.1,293.9,480.2,293.6z"/>
	</g>
</g>
<g>
	<g>
	</g>
</g>
<g>
	<g>
		<path d="M216.9,487.3c0,0-1.8-1-5.5-2.9c-3.6-2-6.4-4.8-8.3-8.6c-1.9-3.8-2.9-8.3-2.9-13.6v-18.5c0-5.3,1-9.9,2.9-13.6
			c1.9-3.8,4.7-6.6,8.3-8.6c3.6-2,8-3,13.2-3c4.2,0,8,0.9,11.4,2.7c3.3,1.8,6.1,4.5,8.3,8c2.2,3.5,3.7,7.7,4.5,12.6h-13.2
			c-0.5-2.2-1.3-4.1-2.3-5.7s-2.3-2.8-3.8-3.6c-1.5-0.8-3.1-1.3-4.9-1.3c-2.4,0-4.4,0.5-6.1,1.5c-1.7,1-2.9,2.4-3.8,4.3
			c-0.9,1.9-1.3,4.1-1.3,6.7v18.5c0,2.6,0.4,4.9,1.3,6.7c0.9,1.9,2.2,3.3,3.8,4.2c1.7,1,3.7,1.5,6.1,1.5c1.9,0,3.5-0.4,5-1.2
			s2.7-2,3.8-3.6c1-1.6,1.8-3.5,2.2-5.8h13.2c-0.9,4.9-2.4,9.1-4.6,12.6c-2.2,3.5-4.9,6.1-8.3,8c-3.3,1.8-7.1,2.7-11.3,2.7
			C219.5,487.3,216.9,487.3,216.9,487.3z"/>
		<path d="M268.9,484.8c-3.1-1.6-5.5-4-7.1-7.2c-1.6-3.1-2.4-6.9-2.4-11.3v-7.8c0-4.4,0.8-8.1,2.4-11.2c1.6-3.1,4-5.5,7.1-7.1
			c3.1-1.6,6.9-2.4,11.2-2.4c4.4,0,8.1,0.8,11.2,2.4c3.1,1.6,5.5,4,7.1,7.1c1.6,3.1,2.4,6.8,2.4,11.2v8c0,4.4-0.8,8.1-2.4,11.2
			c-1.6,3.1-4,5.5-7.1,7.1c-3.1,1.6-6.9,2.5-11.2,2.5C275.8,487.3,272,486.5,268.9,484.8z M286.1,472.8c1.4-1.5,2.1-3.6,2.1-6.3v-8
			c0-2.7-0.7-4.8-2.1-6.3c-1.4-1.5-3.4-2.2-6-2.2c-2.5,0-4.5,0.7-5.9,2.2s-2.1,3.6-2.1,6.3v8c0,2.7,0.7,4.8,2.1,6.3s3.4,2.2,5.9,2.2
			C282.7,475,284.7,474.3,286.1,472.8z"/>
		<path d="M313.9,438.4h12.7v48.1h-12.7V438.4z M341.7,457.4c0-2.3-0.7-4.2-2-5.5c-1.3-1.3-3.3-1.9-5.7-1.9c-2.4,0-4.2,0.7-5.5,2
			c-1.3,1.3-1.9,3.2-1.9,5.5l-1-10.7c1.5-3,3.2-5.3,5.2-6.8c2-1.5,4.6-2.3,7.6-2.3c5.1,0,9,1.7,11.8,5.1c2.8,3.4,4.2,8.3,4.2,14.5
			v29.2h-12.7V457.4z"/>
		<path d="M364.6,438.4h23.6v10.9h-23.6V438.4z M372.5,483.6c-2-2.1-2.9-5.3-2.9-9.5v-49.6h12.7v46.5c0,1.2,0.2,2.1,0.7,2.7
			s1.1,1,2,1h3.2v12.2h-6.4C377.5,486.8,374.4,485.7,372.5,483.6z"/>
		<path d="M400.6,438.4h13.6v48.1h-13.6V438.4z M425.4,450.5c-0.9-0.3-1.9-0.5-3.1-0.5c-2.6,0-4.6,0.8-6,2.5s-2.1,4-2.1,6.9l-1-12.5
			c1.3-2.9,3.1-5.1,5.2-6.7c2.1-1.6,4.4-2.4,7-2.4c2,0,3.8,0.3,5.5,1c1.6,0.6,3,1.6,4.2,2.8l-7.4,10.3
			C427.1,451.2,426.3,450.8,425.4,450.5z"/>
		<path d="M450.6,484.8c-3.1-1.6-5.5-4-7.1-7.2c-1.6-3.1-2.4-6.9-2.4-11.3v-7.8c0-4.4,0.8-8.1,2.4-11.2c1.6-3.1,4-5.5,7.1-7.1
			c3.1-1.6,6.9-2.4,11.2-2.4c4.4,0,8.1,0.8,11.2,2.4c3.1,1.6,5.5,4,7.1,7.1c1.6,3.1,2.4,6.8,2.4,11.2v8c0,4.4-0.8,8.1-2.4,11.2
			c-1.6,3.1-4,5.5-7.1,7.1c-3.1,1.6-6.9,2.5-11.2,2.5C457.5,487.3,453.7,486.5,450.6,484.8z M467.8,472.8c1.4-1.5,2.1-3.6,2.1-6.3
			v-8c0-2.7-0.7-4.8-2.1-6.3c-1.4-1.5-3.4-2.2-6-2.2c-2.5,0-4.5,0.7-5.9,2.2s-2.1,3.6-2.1,6.3v8c0,2.7,0.7,4.8,2.1,6.3
			s3.4,2.2,5.9,2.2C464.4,475,466.4,474.3,467.8,472.8z"/>
		<path d="M508.3,470.7c0,1.2,0.3,2.1,1,2.7c0.7,0.6,1.6,1,2.9,1h2.1v12.2h-6.5c-3.9,0-6.9-1.1-9-3.3c-2.1-2.2-3.2-5.4-3.2-9.4
			v-54.7h12.7V470.7z"/>
	</g>
</g>
<g>
	<g>
		<path d="M249.4,612.8V626c0,5-1,9.4-3,13.2c-2,3.8-4.9,6.8-8.6,8.9c-3.7,2.1-8,3.1-12.9,3.1c-4.9,0-9.3-1-13-2.9
			c-3.8-2-6.7-4.7-8.7-8.3c-2.1-3.6-3.1-7.7-3.1-12.5v-19.9c0-5,1-9.4,3-13.2c2-3.8,4.9-6.8,8.6-8.8c3.7-2.1,8-3.1,12.9-3.1
			c4,0,7.7,0.8,11.1,2.5c3.4,1.7,6.2,4,8.5,7c2.3,3,3.8,6.5,4.6,10.5h-13.7c-0.5-1.4-1.2-2.7-2.3-3.7c-1.1-1-2.3-1.8-3.8-2.4
			c-1.4-0.5-2.9-0.8-4.5-0.8c-2.3,0-4.2,0.5-6,1.5c-1.7,1-3,2.4-4,4.2c-0.9,1.8-1.4,3.9-1.4,6.3v19.9c0,2.1,0.5,4,1.4,5.6
			c1,1.6,2.3,2.8,4.1,3.7c1.8,0.9,3.8,1.3,6.1,1.3c2.3,0,4.3-0.5,6-1.4c1.7-0.9,3-2.3,4-4.1c0.9-1.8,1.4-3.9,1.4-6.4v-1.1H226v-12.2
			H249.4z"/>
		<path d="M263.2,602.4h13.6v48.1h-13.6V602.4z M288,614.4c-0.9-0.3-1.9-0.5-3.1-0.5c-2.6,0-4.6,0.8-6,2.5s-2.1,4-2.1,6.9l-1-12.5
			c1.3-2.9,3.1-5.1,5.2-6.7c2.1-1.6,4.4-2.4,7-2.4c2,0,3.8,0.3,5.5,1c1.6,0.6,3,1.6,4.2,2.8l-7.4,10.3
			C289.7,615.2,288.9,614.7,288,614.4z"/>
		<path d="M313.2,648.8c-3.1-1.6-5.5-4-7.1-7.2c-1.6-3.1-2.4-6.9-2.4-11.3v-7.8c0-4.4,0.8-8.1,2.4-11.2c1.6-3.1,4-5.5,7.1-7.1
			c3.1-1.6,6.9-2.4,11.2-2.4c4.4,0,8.1,0.8,11.2,2.4c3.1,1.6,5.5,4,7.1,7.1c1.6,3.1,2.4,6.8,2.4,11.2v8c0,4.4-0.8,8.1-2.4,11.2
			c-1.6,3.1-4,5.5-7.1,7.1c-3.1,1.6-6.9,2.5-11.2,2.5C320.1,651.2,316.4,650.4,313.2,648.8z M330.4,636.7c1.4-1.5,2.1-3.6,2.1-6.3
			v-8c0-2.7-0.7-4.8-2.1-6.3c-1.4-1.5-3.4-2.2-6-2.2c-2.5,0-4.5,0.7-5.9,2.2s-2.1,3.6-2.1,6.3v8c0,2.7,0.7,4.8,2.1,6.3
			s3.4,2.2,5.9,2.2C327,639,329,638.2,330.4,636.7z"/>
		<path d="M370.9,631.7c0,2.3,0.7,4.1,2,5.4c1.3,1.3,3.2,1.9,5.5,1.9c2.4,0,4.2-0.7,5.5-2c1.3-1.3,1.9-3.2,1.9-5.6l0.6,10.5
			c-0.9,2.6-2.4,4.8-4.5,6.6c-2.1,1.8-4.6,2.7-7.6,2.7c-5.2,0-9.2-1.7-12-5c-2.8-3.3-4.2-8-4.2-14.1v-29.7h12.7V631.7z M385.8,602.4
			h12.7v48.1h-12.7V602.4z"/>
		<path d="M412.4,602.4h12.7v48.1h-12.7V602.4z M440.2,621.4c0-2.3-0.7-4.2-2-5.5c-1.3-1.3-3.3-1.9-5.7-1.9c-2.4,0-4.2,0.7-5.5,2
			c-1.3,1.3-1.9,3.2-1.9,5.5l-1-10.7c1.5-3,3.2-5.3,5.2-6.8c2-1.5,4.6-2.3,7.6-2.3c5.1,0,9,1.7,11.8,5.1c2.8,3.4,4.2,8.3,4.2,14.5
			v29.2h-12.7V621.4z"/>
		<path d="M472.8,648.8c-2.4-1.6-4.3-4-5.5-7.1c-1.3-3.1-1.9-6.9-1.9-11.2v-7.7c0-4.4,0.6-8.2,1.9-11.4c1.3-3.2,3.1-5.5,5.5-7.2
			c2.4-1.6,5.3-2.5,8.7-2.5c2.6,0,4.9,0.8,7,2.3c2.1,1.5,3.8,3.7,5.1,6.5l-1,10.7c0-1.6-0.3-3-0.8-4.2c-0.6-1.1-1.4-2-2.4-2.6
			c-1.1-0.6-2.4-0.9-3.9-0.9c-2.4,0-4.2,0.8-5.5,2.4c-1.3,1.6-2,3.9-2,6.8v7.7c0,2.9,0.7,5.1,2,6.7c1.3,1.6,3.2,2.4,5.5,2.4
			c1.5,0,2.8-0.3,3.9-0.9c1.1-0.6,1.9-1.4,2.4-2.6s0.8-2.5,0.8-4l0.6,11c-1,2.6-2.5,4.7-4.5,6.1c-2,1.4-4.5,2.2-7.3,2.2
			C478.2,651.2,475.2,650.4,472.8,648.8z M492.7,583.1h12.7v67.4h-12.7V583.1z"/>
	</g>
</g>
<g>
	<g>
		<path d="M353,116.6c0,6,1.5,10.7,4.6,14c3.1,3.3,7.4,4.9,13,4.9c5.5,0,9.8-1.5,12.9-4.4c3-2.9,4.6-7.1,4.6-12.5l1.2,18
			c-1.8,4.3-4.6,7.8-8.6,10.7c-4,2.9-8.9,4.3-14.7,4.3c-9.5,0-16.9-3.1-22-9.2c-5.2-6.1-7.8-14.7-7.8-25.9V64.2H353V116.6z
			 M388,64.2h16.9v86.2H388V64.2z"/>
		<path d="M445.9,140.5c-4.9-13.3-7.3-27.9-7.3-43.9c0-16,2.4-30.6,7.3-43.9c4.9-13.3,12.3-25.2,22.1-35.9l11.6,10.5
			c-8.4,9.3-14.6,19.7-18.8,31.2c-4.2,11.5-6.2,24.2-6.2,38c0,13.8,2.1,26.5,6.2,38c4.2,11.5,10.4,21.9,18.8,31.3L468,176.4
			C458.2,165.7,450.8,153.7,445.9,140.5z"/>
		<path d="M500.9,29.7h16.9v120.7h-16.9V29.7z M508.2,117.7l44.3-53.5h19.9l-65.3,73.5L508.2,117.7z M528.2,100.7L539,89.4l37.6,61
			h-18.4L528.2,100.7z"/>
		<path d="M585.4,165.9c8.4-9.4,14.6-19.8,18.8-31.3c4.2-11.5,6.2-24.2,6.2-38c0-13.8-2.1-26.5-6.2-38
			c-4.2-11.5-10.4-21.9-18.8-31.2L597,16.8c9.8,10.7,17.2,22.6,22.1,35.9c4.9,13.3,7.3,27.9,7.3,43.9c0,16-2.4,30.6-7.3,43.9
			c-4.9,13.3-12.3,25.2-22.1,35.9L585.4,165.9z"/>
	</g>
</g>
</svg>
